<?xml version="1.0" encoding="UTF-8" standalone="no"?>
<!-- Created with Inkscape (http://www.inkscape.org/) -->

<svg
   version="1.1"
   id="svg1"
   width="367.48001"
   height="116.68"
   viewBox="0 0 367.48001 116.68"
   xmlns="http://www.w3.org/2000/svg"
   xmlns:svg="http://www.w3.org/2000/svg">
  <defs
     id="defs1" />
  <g
     id="g1">
    <g
       id="group-R5">
      <path
         id="path2"
         d="m 1304.78,561.125 74.63,0.078 c 9.62,0.008 17.91,4.574 24.87,13.707 6.96,9.129 10.43,20.828 10.42,35.094 -0.02,14.598 -4.01,26.199 -11.98,34.82 -7.97,8.614 -16.61,12.918 -25.89,12.91 l -72.15,-0.078 z m -81.42,-185.191 -0.36,353.296 159.23,0.165 c 16.58,0.015 31.93,-3.446 46.04,-10.403 14.1,-6.945 26.31,-16.066 36.6,-27.332 10.29,-11.265 18.35,-24.031 24.17,-38.293 5.82,-14.254 8.74,-28.683 8.76,-43.277 0.01,-10.949 -1.31,-21.481 -3.96,-31.602 -2.64,-10.125 -6.44,-19.66 -11.41,-28.625 -4.96,-8.961 -11.01,-17.011 -18.13,-24.148 -7.14,-7.145 -15.17,-13.203 -24.12,-18.192 l 81.25,-131.281 -92.06,-0.094 -71.27,113.875 -53.25,-0.058 0.12,-113.949 -81.61,-0.082"
         style="fill:#1f3d67;fill-opacity:1;fill-rule:nonzero;stroke:none"
         transform="matrix(0.13333333,0,0,-0.13333333,0,116.68)" />
      <path
         id="path3"
         d="m 1541.15,555.898 c -0.02,21.227 3.76,42.375 11.37,63.457 7.61,21.071 18.7,39.903 33.29,56.508 14.57,16.602 32.39,30.055 53.44,40.364 21.06,10.3 45.02,15.472 71.89,15.503 31.51,0.032 58.89,-7.082 82.13,-21.316 23.23,-14.242 40.5,-32.797 51.8,-55.676 l -62.64,-43.855 c -3.67,9.277 -8.32,16.988 -13.96,23.125 -5.65,6.129 -11.8,11.094 -18.43,14.91 -6.64,3.801 -13.53,6.453 -20.66,7.941 -7.14,1.481 -13.86,2.223 -20.16,2.215 -14.6,-0.015 -27.19,-3.179 -37.8,-9.496 -10.61,-6.312 -19.39,-14.445 -26.36,-24.406 -6.94,-9.961 -12.15,-21.246 -15.63,-33.852 -3.47,-12.613 -5.2,-25.386 -5.19,-38.32 0.02,-13.937 2.1,-27.363 6.26,-40.301 4.16,-12.937 9.98,-24.371 17.46,-34.32 7.47,-9.941 16.52,-17.813 27.15,-23.602 10.61,-5.8 22.39,-8.687 35.33,-8.672 6.64,0.004 13.51,0.922 20.65,2.758 7.13,1.825 14.01,4.653 20.64,8.477 6.63,3.816 12.59,8.805 17.9,14.945 5.3,6.145 9.6,13.695 12.91,22.656 l 67.23,-39.238 c -5.3,-12.945 -13.01,-24.57 -23.11,-34.859 -10.11,-10.297 -21.63,-18.93 -34.56,-25.906 -12.93,-6.985 -26.61,-12.309 -41.03,-15.969 -14.43,-3.66 -28.61,-5.5 -42.55,-5.516 -24.55,-0.023 -47.02,5.176 -67.43,15.606 -20.42,10.425 -38.02,24.257 -52.79,41.492 -14.79,17.226 -26.34,36.793 -34.64,58.679 -8.32,21.883 -12.49,44.106 -12.51,66.668"
         style="fill:#1f3d67;fill-opacity:1;fill-rule:nonzero;stroke:none"
         transform="matrix(0.13333333,0,0,-0.13333333,0,116.68)" />
      <path
         id="path4"
         d="m 2192.58,657.867 -107.48,-0.113 0.3,-281.641 -81.61,-0.082 -0.29,281.641 -107.99,-0.113 -0.08,71.656 297.07,0.308 0.08,-71.656"
         style="fill:#86d6d3;fill-opacity:1;fill-rule:nonzero;stroke:none"
         transform="matrix(0.13333333,0,0,-0.13333333,0,116.68)" />
      <path
         id="path5"
         d="m 2281.2,428.566 c 8.62,0.008 16.99,1.512 25.12,4.512 8.13,2.988 14.84,6.977 20.14,11.957 7.62,5.977 11.43,12.281 11.43,18.918 l -0.03,24.879 c -6.97,2.648 -14.52,4.719 -22.65,6.199 -8.13,1.489 -15.67,2.227 -22.64,2.219 -14.61,-0.02 -26.63,-3.348 -36.07,-9.988 -9.44,-6.653 -14.16,-15.278 -14.15,-25.895 0.01,-9.625 3.67,-17.496 10.97,-23.625 7.3,-6.129 16.59,-9.187 27.88,-9.176 z m -23.32,-57.246 c -12.94,-0.015 -24.98,2.047 -36.09,6.18 -11.13,4.133 -20.66,9.934 -28.63,17.387 -7.98,7.457 -14.29,16.238 -18.95,26.355 -4.65,10.106 -6.98,21.141 -6.99,33.086 -0.02,12.934 2.71,24.707 8.18,35.336 5.45,10.621 13.16,19.746 23.1,27.391 9.94,7.636 21.72,13.621 35.31,17.949 13.6,4.324 28.69,6.5 45.28,6.519 10.94,0.012 21.57,-0.898 31.85,-2.703 10.28,-1.816 19.24,-4.543 26.88,-8.183 l -0.02,11.941 c -0.03,30.18 -17.46,45.266 -52.3,45.227 -14.26,-0.016 -27.85,-2.438 -40.79,-7.258 -12.93,-4.824 -26.52,-12.055 -40.77,-21.684 l -23.45,49.731 c 17.24,11.289 35.14,19.769 53.72,25.433 18.57,5.657 38.3,8.496 59.2,8.524 39.49,0.039 70.01,-9.223 91.59,-27.774 21.59,-18.554 32.4,-45.742 32.43,-81.574 l 0.07,-67.172 c 0,-7.965 1.51,-13.515 4.5,-16.664 2.99,-3.156 8.29,-5.054 15.92,-5.707 l 0.07,-67.176 c -7.63,-1.664 -14.67,-2.754 -21.14,-3.257 -6.47,-0.5 -12.2,-0.762 -17.17,-0.766 -14.6,0.316 -25.71,3.297 -33.35,8.922 -7.63,5.633 -12.45,13.754 -14.45,24.371 l -1.5,11.937 c -11.61,-14.941 -25.44,-26.402 -41.52,-34.375 -16.09,-7.98 -33.07,-11.976 -50.98,-11.996"
         style="fill:#86d6d3;fill-opacity:1;fill-rule:nonzero;stroke:none"
         transform="matrix(0.13333333,0,0,-0.13333333,0,116.68)" />
      <path
         id="path6"
         d="m 2611.83,438.867 c 9.29,0.012 17.83,1.754 25.63,5.25 7.78,3.492 14.42,8.223 19.89,14.199 5.47,5.977 9.69,13.028 12.66,21.161 2.98,8.132 4.47,17.003 4.46,26.628 -0.01,9.286 -1.44,18.165 -4.27,26.614 -2.82,8.457 -6.89,15.836 -12.21,22.129 -5.32,6.297 -11.54,11.265 -18.68,14.914 -7.14,3.636 -15.01,5.457 -23.63,5.449 -12.61,-0.012 -24.13,-4.344 -34.57,-12.973 -10.44,-8.64 -18.49,-19.425 -24.1,-32.371 l 0.06,-54.734 c 5.64,-11.274 13.45,-20.137 23.4,-26.598 9.96,-6.461 20.41,-9.683 31.36,-9.668 z m 22.47,-67.156 c -19.9,-0.02 -37.24,4.187 -52.02,12.637 -14.77,8.441 -26.47,20.285 -35.12,35.539 l 0.05,-43.289 -69.66,-0.075 -0.38,363.254 79.61,0.082 0.16,-144.804 c 8.6,14.937 20.13,26.64 34.55,35.117 14.41,8.473 31.58,12.719 51.48,12.738 16.6,0.02 31.77,-3.535 45.55,-10.648 13.77,-7.121 25.65,-16.817 35.61,-29.067 9.96,-12.273 17.77,-26.785 23.43,-43.515 5.65,-16.754 8.49,-34.582 8.51,-53.492 0.02,-18.907 -3.03,-36.575 -9.15,-53.004 -6.12,-16.426 -14.65,-30.704 -25.59,-42.817 -10.92,-12.125 -23.85,-21.594 -38.78,-28.402 -14.92,-6.817 -31,-10.235 -48.25,-10.254"
         style="fill:#86d6d3;fill-opacity:1;fill-rule:nonzero;stroke:none"
         transform="matrix(0.13333333,0,0,-0.13333333,0,116.68)" />
      <path
         id="path7"
         d="m 1252.79,161.465 h -8.82 v 69.078 h -25.88 v 8.043 h 60.59 v -8.043 h -25.89 v -69.078"
         style="fill:#203d67;fill-opacity:1;fill-rule:nonzero;stroke:none"
         transform="matrix(0.13333333,0,0,-0.13333333,0,116.68)" />
      <path
         id="path8"
         d="m 1323.05,229 -17.63,-39.332 h 35.15 z m 39.33,-67.535 h -9.36 l -9.04,20.383 h -41.97 l -9.14,-20.383 h -8.93 l 35.14,77.672 h 8.16 l 35.14,-77.672"
         style="fill:#203d67;fill-opacity:1;fill-rule:nonzero;stroke:none"
         transform="matrix(0.13333333,0,0,-0.13333333,0,116.68)" />
      <path
         id="path9"
         d="m 1436.51,183.164 c 0,8.488 -7.05,13.336 -20.5,13.336 h -24.34 v -27.215 h 25.88 c 11.68,0 18.96,5.18 18.96,13.879 z m -4.3,34.926 c 0,7.711 -6.06,12.672 -17.08,12.672 h -23.46 v -26.551 h 22.81 c 10.46,0 17.73,4.734 17.73,13.879 z m 8.81,1.211 c 0,-10.129 -6.16,-15.313 -12.23,-17.953 9.14,-2.754 16.53,-8.047 16.53,-18.731 0,-13.332 -11.13,-21.152 -27.98,-21.152 h -34.26 v 77.121 h 32.82 c 15.21,0 25.12,-7.492 25.12,-19.285"
         style="fill:#203d67;fill-opacity:1;fill-rule:nonzero;stroke:none"
         transform="matrix(0.13333333,0,0,-0.13333333,0,116.68)" />
      <path
         id="path10"
         d="m 1531.13,194.406 c 0,-22.472 -12.89,-34.152 -32.17,-34.152 -19.06,0 -32.06,11.68 -32.06,33.488 v 44.844 h 8.7 v -44.289 c 0,-16.641 8.81,-26.004 23.57,-26.004 14.21,0 23.26,8.594 23.26,25.449 v 44.844 h 8.7 v -44.18"
         style="fill:#203d67;fill-opacity:1;fill-rule:nonzero;stroke:none"
         transform="matrix(0.13333333,0,0,-0.13333333,0,116.68)" />
      <path
         id="path11"
         d="m 1557.22,238.586 h 8.7 v -69.074 h 43.41 v -8.047 h -52.11 v 77.121"
         style="fill:#203d67;fill-opacity:1;fill-rule:nonzero;stroke:none"
         transform="matrix(0.13333333,0,0,-0.13333333,0,116.68)" />
      <path
         id="path12"
         d="m 1663.4,229 -17.62,-39.332 h 35.14 z m 39.33,-67.535 h -9.37 l -9.03,20.383 h -41.97 l -9.14,-20.383 h -8.93 l 35.15,77.672 h 8.14 l 35.15,-77.672"
         style="fill:#203d67;fill-opacity:1;fill-rule:nonzero;stroke:none"
         transform="matrix(0.13333333,0,0,-0.13333333,0,116.68)" />
      <path
         id="path13"
         d="m 1742.7,161.465 h -8.81 v 69.078 H 1708 v 8.043 h 60.59 v -8.043 h -25.89 v -69.078"
         style="fill:#203d67;fill-opacity:1;fill-rule:nonzero;stroke:none"
         transform="matrix(0.13333333,0,0,-0.13333333,0,116.68)" />
      <path
         id="path14"
         d="m 1799.87,238.586 v -77.121 h -8.7 v 77.121 h 8.7"
         style="fill:#203d67;fill-opacity:1;fill-rule:nonzero;stroke:none"
         transform="matrix(0.13333333,0,0,-0.13333333,0,116.68)" />
      <path
         id="path15"
         d="m 1863.75,231.859 c -17.62,0 -30.18,-14.101 -30.18,-31.726 0,-17.621 12.78,-31.949 30.41,-31.949 17.63,0 30.19,14.101 30.19,31.726 0,17.629 -12.79,31.949 -30.42,31.949 z m 0,-71.711 c -23.46,0 -39.21,18.399 -39.21,39.762 0,21.375 15.97,39.992 39.44,39.992 23.47,0 39.22,-18.394 39.22,-39.769 0,-21.371 -15.98,-39.985 -39.45,-39.985"
         style="fill:#203d67;fill-opacity:1;fill-rule:nonzero;stroke:none"
         transform="matrix(0.13333333,0,0,-0.13333333,0,116.68)" />
      <path
         id="path16"
         d="m 1983.82,238.586 h 8.48 v -77.121 h -6.93 l -49.8,63.238 v -63.238 h -8.49 v 77.121 h 8.16 l 48.58,-61.809 v 61.809"
         style="fill:#203d67;fill-opacity:1;fill-rule:nonzero;stroke:none"
         transform="matrix(0.13333333,0,0,-0.13333333,0,116.68)" />
      <path
         id="path17"
         d="m 2102.33,204.211 c 17.19,-3.746 25.13,-10.02 25.13,-21.926 0,-13.332 -11.03,-21.922 -26.34,-21.922 -12.23,0 -22.25,4.082 -31.51,12.34 l 5.4,6.391 c 8.04,-7.278 15.76,-10.91 26.44,-10.91 10.36,0 17.19,5.402 17.19,13.222 0,7.266 -3.86,11.348 -20.05,14.762 -17.74,3.855 -25.89,9.586 -25.89,22.363 0,12.336 10.68,21.153 25.33,21.153 11.24,0 19.29,-3.196 27.11,-9.473 l -5.07,-6.719 c -7.16,5.836 -14.32,8.367 -22.25,8.367 -10.03,0 -16.42,-5.507 -16.42,-12.558 0,-7.375 3.97,-11.453 20.93,-15.09"
         style="fill:#203d67;fill-opacity:1;fill-rule:nonzero;stroke:none"
         transform="matrix(0.13333333,0,0,-0.13333333,0,116.68)" />
      <path
         id="path18"
         d="m 2186.48,231.859 c -17.63,0 -30.19,-14.101 -30.19,-31.726 0,-17.621 12.79,-31.949 30.41,-31.949 17.63,0 30.19,14.101 30.19,31.726 0,17.629 -12.78,31.949 -30.41,31.949 z m 0,-71.711 c -23.47,0 -39.22,18.399 -39.22,39.762 0,21.375 15.98,39.992 39.44,39.992 23.47,0 39.22,-18.394 39.22,-39.769 0,-21.371 -15.97,-39.985 -39.44,-39.985"
         style="fill:#203d67;fill-opacity:1;fill-rule:nonzero;stroke:none"
         transform="matrix(0.13333333,0,0,-0.13333333,0,116.68)" />
      <path
         id="path19"
         d="m 2305.23,230.543 h -46.71 V 203 h 41.76 v -7.93 h -41.76 v -33.605 h -8.7 v 77.121 h 55.41 v -8.043"
         style="fill:#203d67;fill-opacity:1;fill-rule:nonzero;stroke:none"
         transform="matrix(0.13333333,0,0,-0.13333333,0,116.68)" />
      <path
         id="path20"
         d="m 2356.77,161.465 h -8.81 v 69.078 h -25.88 v 8.043 h 60.58 v -8.043 h -25.89 v -69.078"
         style="fill:#203d67;fill-opacity:1;fill-rule:nonzero;stroke:none"
         transform="matrix(0.13333333,0,0,-0.13333333,0,116.68)" />
      <path
         id="path21"
         d="m 2451.17,238.805 h 7.16 l 21.15,-64.45 22.04,64.231 h 9.14 l -27.54,-77.668 h -7.38 l -21.16,62.574 -21.25,-62.574 h -7.28 l -27.54,77.668 h 9.47 l 22.03,-64.231 21.16,64.45"
         style="fill:#203d67;fill-opacity:1;fill-rule:nonzero;stroke:none"
         transform="matrix(0.13333333,0,0,-0.13333333,0,116.68)" />
      <path
         id="path22"
         d="m 2554.48,229 -17.63,-39.332 H 2572 Z m 39.32,-67.535 h -9.36 l -9.03,20.383 h -41.98 l -9.14,-20.383 h -8.92 l 35.14,77.672 h 8.15 l 35.14,-77.672"
         style="fill:#203d67;fill-opacity:1;fill-rule:nonzero;stroke:none"
         transform="matrix(0.13333333,0,0,-0.13333333,0,116.68)" />
      <path
         id="path23"
         d="m 2647.01,230.543 h -23.8 v -31.289 h 23.69 c 11.56,0 19.82,5.945 19.82,15.973 0,9.582 -7.26,15.316 -19.71,15.316 z m 20.59,-69.078 -22.36,29.973 h -22.03 v -29.973 h -8.7 v 77.121 h 33.15 c 16.97,0 27.88,-9.148 27.88,-23.027 0,-12.891 -8.82,-20.383 -20.94,-22.59 l 23.7,-31.504 h -10.7"
         style="fill:#203d67;fill-opacity:1;fill-rule:nonzero;stroke:none"
         transform="matrix(0.13333333,0,0,-0.13333333,0,116.68)" />
      <path
         id="path24"
         d="m 2755.39,230.648 h -47.05 V 204.32 h 42.09 v -7.933 h -42.09 v -26.992 h 47.6 v -7.93 h -56.3 v 77.121 h 55.75 v -7.938"
         style="fill:#203d67;fill-opacity:1;fill-rule:nonzero;stroke:none"
         transform="matrix(0.13333333,0,0,-0.13333333,0,116.68)" />
      <path
         id="path25"
         d="M 1218.4,300.07 H 2755.9"
         style="fill:none;stroke:#86d6d3;stroke-width:7.32619;stroke-linecap:butt;stroke-linejoin:miter;stroke-miterlimit:10;stroke-dasharray:none;stroke-opacity:1"
         transform="matrix(0.13333333,0,0,-0.13333333,0,116.68)" />
      <path
         id="path26"
         d="M 1218.4,105.148 H 2755.9"
         style="fill:none;stroke:#86d6d3;stroke-width:7.32619;stroke-linecap:butt;stroke-linejoin:miter;stroke-miterlimit:10;stroke-dasharray:none;stroke-opacity:1"
         transform="matrix(0.13333333,0,0,-0.13333333,0,116.68)" />
      <path
         id="path27"
         d="M 207.309,0 H 1082.4 V 875.098 H 207.309 V 0"
         style="fill:#d6f1ec;fill-opacity:1;fill-rule:nonzero;stroke:none"
         transform="matrix(0.13333333,0,0,-0.13333333,0,116.68)" />
      <path
         id="path28"
         d="M 892.68,151.27 747.5,307.742 H 0 L 146.34,151.27 h 746.34"
         style="fill:#e31a35;fill-opacity:1;fill-rule:nonzero;stroke:none"
         transform="matrix(0.13333333,0,0,-0.13333333,0,116.68)" />
      <path
         id="path29"
         d="M 892.68,595.352 747.5,751.828 H 0 L 146.34,595.352 h 746.34"
         style="fill:#203d67;fill-opacity:1;fill-rule:nonzero;stroke:none"
         transform="matrix(0.13333333,0,0,-0.13333333,0,116.68)" />
      <path
         id="path30"
         d="M 892.68,374.457 747.5,530.934 H 0 L 146.34,374.457 h 746.34"
         style="fill:#86d6d3;fill-opacity:1;fill-rule:nonzero;stroke:none"
         transform="matrix(0.13333333,0,0,-0.13333333,0,116.68)" />
    </g>
  </g>
</svg>
