<?xml version="1.0" encoding="UTF-8" standalone="no"?>
<!-- Created with Inkscape (http://www.inkscape.org/) -->

<svg
   version="1.1"
   id="svg1"
   width="342.07999"
   height="162.74667"
   viewBox="0 0 342.07999 162.74667"
   xmlns="http://www.w3.org/2000/svg"
   xmlns:svg="http://www.w3.org/2000/svg">
  <defs
     id="defs1" />
  <g
     id="g1">
    <g
       id="group-R5">
      <path
         id="path2"
         d="m 1034.39,75.5898 h -25.44 V 42.1289 h 25.32 c 12.37,0 21.21,6.3711 21.21,17.082 0,10.2579 -7.78,16.3789 -21.09,16.3789 z M 1056.42,1.73047 1032.5,33.7695 h -23.55 V 1.73047 h -9.309 V 84.1914 h 35.459 c 18.14,0 29.8,-9.7695 29.8,-24.6211 0,-13.7812 -9.42,-21.789 -22.38,-24.1484 l 25.33,-33.69143 h -11.43"
         style="fill:#203d67;fill-opacity:1;fill-rule:nonzero;stroke:none"
         transform="matrix(0.13333333,0,0,-0.13333333,0,162.74667)" />
      <path
         id="path3"
         d="m 1170.72,75.7109 h -50.3 V 47.5508 h 45 v -8.4727 h -45 V 10.2109 h 50.88 V 1.73047 h -60.19 V 84.1914 h 59.61 v -8.4805"
         style="fill:#203d67;fill-opacity:1;fill-rule:nonzero;stroke:none"
         transform="matrix(0.13333333,0,0,-0.13333333,0,162.74667)" />
      <path
         id="path4"
         d="m 1245.91,47.4414 c 18.37,-4.0117 26.85,-10.7226 26.85,-23.4414 0,-14.26172 -11.77,-23.449219 -28.15,-23.449219 -13.07,0 -23.79,4.371099 -33.69,13.187519 l 5.77,6.8398 c 8.6,-7.7695 16.85,-11.65622 28.28,-11.65622 11.07,0 18.37,5.76952 18.37,14.12892 0,7.7695 -4.12,12.1406 -21.44,15.789 -18.97,4.1211 -27.68,10.25 -27.68,23.9102 0,13.1914 11.42,22.6211 27.09,22.6211 12.02,0 20.62,-3.4102 28.98,-10.1328 l -5.42,-7.1875 c -7.65,6.2383 -15.31,8.9609 -23.79,8.9609 -10.72,0 -17.55,-5.8906 -17.55,-13.4336 0,-7.8867 4.24,-12.2578 22.38,-16.1367"
         style="fill:#203d67;fill-opacity:1;fill-rule:nonzero;stroke:none"
         transform="matrix(0.13333333,0,0,-0.13333333,0,162.74667)" />
      <path
         id="path5"
         d="m 1356.31,77.0117 c -18.84,0 -32.27,-15.082 -32.27,-33.9336 0,-18.8476 13.66,-34.15622 32.51,-34.15622 18.85,0 32.27,15.07812 32.27,33.92972 0,18.8398 -13.66,34.1601 -32.51,34.1601 z m 0,-76.691387 c -25.09,0 -41.93,19.667987 -41.93,42.531287 0,22.8476 17.08,42.75 42.17,42.75 25.09,0 41.93,-19.6719 41.93,-42.5235 0,-22.8476 -17.08,-42.757787 -42.17,-42.757787"
         style="fill:#203d67;fill-opacity:1;fill-rule:nonzero;stroke:none"
         transform="matrix(0.13333333,0,0,-0.13333333,0,162.74667)" />
      <path
         id="path6"
         d="m 1511.85,36.9609 c 0,-24.039 -13.78,-36.531212 -34.39,-36.531212 -20.38,0 -34.29,12.492212 -34.29,35.808612 v 47.9531 h 9.31 V 36.8398 c 0,-17.789 9.42,-27.80074 25.21,-27.80074 15.2,0 24.85,9.19144 24.85,27.19924 v 47.9531 h 9.31 V 36.9609"
         style="fill:#203d67;fill-opacity:1;fill-rule:nonzero;stroke:none"
         transform="matrix(0.13333333,0,0,-0.13333333,0,162.74667)" />
      <path
         id="path7"
         d="m 1594.93,75.5898 h -25.45 V 42.1289 h 25.33 c 12.36,0 21.2,6.3711 21.2,17.082 0,10.2579 -7.77,16.3789 -21.08,16.3789 z m 22.02,-73.85933 -23.91,32.03903 h -23.56 V 1.73047 h -9.31 V 84.1914 h 35.46 c 18.14,0 29.8,-9.7695 29.8,-24.6211 0,-13.7812 -9.42,-21.789 -22.38,-24.1484 l 25.32,-33.69143 h -11.42"
         style="fill:#203d67;fill-opacity:1;fill-rule:nonzero;stroke:none"
         transform="matrix(0.13333333,0,0,-0.13333333,0,162.74667)" />
      <path
         id="path8"
         d="m 1709.34,0.320313 c -23.79,0 -41.35,18.730487 -41.35,42.531287 0,23.5468 17.44,42.75 41.7,42.75 14.96,0 23.92,-5.293 32.16,-13.0703 l -6.36,-6.8321 c -6.95,6.5899 -14.72,11.3125 -25.91,11.3125 -18.26,0 -31.93,-14.7304 -31.93,-33.9336 0,-19.1992 13.79,-34.15622 31.93,-34.15622 11.3,0 18.73,4.35942 26.62,11.89842 l 6.13,-6.0117 C 1733.73,6.08984 1724.3,0.320313 1709.34,0.320313"
         style="fill:#203d67;fill-opacity:1;fill-rule:nonzero;stroke:none"
         transform="matrix(0.13333333,0,0,-0.13333333,0,162.74667)" />
      <path
         id="path9"
         d="m 1844.5,75.7109 h -50.31 V 47.5508 h 45 v -8.4727 h -45 V 10.2109 h 50.89 V 1.73047 h -60.19 V 84.1914 h 59.61 v -8.4805"
         style="fill:#203d67;fill-opacity:1;fill-rule:nonzero;stroke:none"
         transform="matrix(0.13333333,0,0,-0.13333333,0,162.74667)" />
      <path
         id="path10"
         d="m 1989.43,0.320313 c -23.79,0 -41.35,18.730487 -41.35,42.531287 0,23.5468 17.43,42.75 41.7,42.75 14.96,0 23.92,-5.293 32.16,-13.0703 l -6.36,-6.8321 c -6.95,6.5899 -14.73,11.3125 -25.92,11.3125 -18.25,0 -31.92,-14.7304 -31.92,-33.9336 0,-19.1992 13.79,-34.15622 31.92,-34.15622 11.31,0 18.73,4.35942 26.62,11.89842 l 6.14,-6.0117 C 2013.81,6.08984 2004.39,0.320313 1989.43,0.320313"
         style="fill:#203d67;fill-opacity:1;fill-rule:nonzero;stroke:none"
         transform="matrix(0.13333333,0,0,-0.13333333,0,162.74667)" />
      <path
         id="path11"
         d="m 2124.58,75.7109 h -50.3 V 47.5508 h 45 v -8.4727 h -45 V 10.2109 h 50.89 V 1.73047 h -60.19 V 84.1914 h 59.6 v -8.4805"
         style="fill:#203d67;fill-opacity:1;fill-rule:nonzero;stroke:none"
         transform="matrix(0.13333333,0,0,-0.13333333,0,162.74667)" />
      <path
         id="path12"
         d="m 2230.86,84.1914 h 9.08 V 1.73047 h -7.43 L 2179.27,69.3516 V 1.73047 h -9.07 V 84.1914 h 8.72 l 51.94,-66.082 v 66.082"
         style="fill:#203d67;fill-opacity:1;fill-rule:nonzero;stroke:none"
         transform="matrix(0.13333333,0,0,-0.13333333,0,162.74667)" />
      <path
         id="path13"
         d="m 2320.79,1.73047 h -9.43 V 75.5898 h -27.68 v 8.6016 h 64.78 v -8.6016 h -27.67 V 1.73047"
         style="fill:#203d67;fill-opacity:1;fill-rule:nonzero;stroke:none"
         transform="matrix(0.13333333,0,0,-0.13333333,0,162.74667)" />
      <path
         id="path14"
         d="m 2451.81,75.7109 h -50.3 V 47.5508 h 45 v -8.4727 h -45 V 10.2109 h 50.89 V 1.73047 h -60.2 V 84.1914 h 59.61 v -8.4805"
         style="fill:#203d67;fill-opacity:1;fill-rule:nonzero;stroke:none"
         transform="matrix(0.13333333,0,0,-0.13333333,0,162.74667)" />
      <path
         id="path15"
         d="m 2532.18,75.5898 h -25.45 V 42.1289 h 25.34 c 12.36,0 21.2,6.3711 21.2,17.082 0,10.2579 -7.78,16.3789 -21.09,16.3789 z M 2554.2,1.73047 2530.3,33.7695 h -23.57 V 1.73047 h -9.3 V 84.1914 h 35.46 c 18.14,0 29.8,-9.7695 29.8,-24.6211 0,-13.7812 -9.42,-21.789 -22.38,-24.1484 l 25.32,-33.69143 h -11.43"
         style="fill:#203d67;fill-opacity:1;fill-rule:nonzero;stroke:none"
         transform="matrix(0.13333333,0,0,-0.13333333,0,162.74667)" />
      <path
         id="path16"
         d="M 253.262,586.801 H 0 V 1219.95 H 253.262 V 586.801"
         style="fill:#203d67;fill-opacity:1;fill-rule:nonzero;stroke:none"
         transform="matrix(0.13333333,0,0,-0.13333333,0,162.74667)" />
      <path
         id="path17"
         d="M 253.262,391.508 H 0 V 552.23 H 253.262 V 391.508"
         style="fill:#e31a35;fill-opacity:1;fill-rule:nonzero;stroke:none"
         transform="matrix(0.13333333,0,0,-0.13333333,0,162.74667)" />
      <path
         id="path18"
         d="M 541.57,586.801 H 288.305 V 1219.95 H 541.57 V 586.801"
         style="fill:#203d67;fill-opacity:1;fill-rule:nonzero;stroke:none"
         transform="matrix(0.13333333,0,0,-0.13333333,0,162.74667)" />
      <path
         id="path19"
         d="M 541.57,391.508 H 288.305 V 552.23 H 541.57 V 391.508"
         style="fill:#203d67;fill-opacity:1;fill-rule:nonzero;stroke:none"
         transform="matrix(0.13333333,0,0,-0.13333333,0,162.74667)" />
      <path
         id="path20"
         d="M 829.859,586.801 H 576.617 V 1219.95 H 829.859 V 586.801"
         style="fill:#203d67;fill-opacity:1;fill-rule:nonzero;stroke:none"
         transform="matrix(0.13333333,0,0,-0.13333333,0,162.74667)" />
      <path
         id="path21"
         d="M 829.859,391.508 H 576.617 V 552.23 H 829.859 V 391.508"
         style="fill:#86d6d3;fill-opacity:1;fill-rule:nonzero;stroke:none"
         transform="matrix(0.13333333,0,0,-0.13333333,0,162.74667)" />
      <path
         id="path22"
         d="M 253.262,195.77 H 0 V 356.469 H 253.262 V 195.77"
         style="fill:#203d67;fill-opacity:1;fill-rule:nonzero;stroke:none"
         transform="matrix(0.13333333,0,0,-0.13333333,0,162.74667)" />
      <path
         id="path23"
         d="M 541.57,195.77 H 288.305 V 356.469 H 541.57 V 195.77"
         style="fill:#86d6d3;fill-opacity:1;fill-rule:nonzero;stroke:none"
         transform="matrix(0.13333333,0,0,-0.13333333,0,162.74667)" />
      <path
         id="path24"
         d="M 829.859,195.77 H 576.617 V 356.469 H 829.859 V 195.77"
         style="fill:#e31a35;fill-opacity:1;fill-rule:nonzero;stroke:none"
         transform="matrix(0.13333333,0,0,-0.13333333,0,162.74667)" />
      <path
         id="path25"
         d="M 253.262,0 H 0 V 160.711 H 253.262 V 0"
         style="fill:#86d6d3;fill-opacity:1;fill-rule:nonzero;stroke:none"
         transform="matrix(0.13333333,0,0,-0.13333333,0,162.74667)" />
      <path
         id="path26"
         d="M 541.57,0 H 288.305 V 160.711 H 541.57 V 0"
         style="fill:#e31a35;fill-opacity:1;fill-rule:nonzero;stroke:none"
         transform="matrix(0.13333333,0,0,-0.13333333,0,162.74667)" />
      <path
         id="path27"
         d="M 829.859,0 H 576.617 V 160.711 H 829.859 V 0"
         style="fill:#203d67;fill-opacity:1;fill-rule:nonzero;stroke:none"
         transform="matrix(0.13333333,0,0,-0.13333333,0,162.74667)" />
      <path
         id="path28"
         d="m 1065.14,1106.13 h 43.73 c 4.26,0 8.23,2.36 11.91,7.1 3.67,4.74 5.51,11.38 5.51,19.91 0,8.77 -2.13,15.47 -6.4,20.09 -4.26,4.63 -8.53,6.93 -12.8,6.93 h -41.95 z M 995.805,968.168 v 252.442 h 115.905 c 12.33,0 23.71,-2.55 34.13,-7.65 10.43,-5.09 19.38,-11.73 26.85,-19.91 7.47,-8.17 13.34,-17.54 17.6,-28.09 4.27,-10.55 6.4,-21.15 6.4,-31.82 0,-14.7 -3.2,-28.38 -9.6,-41.06 -6.4,-12.69 -15.29,-23.06 -26.67,-31.12 l 56.89,-92.792 h -78.22 l -48,77.512 h -25.95 v -77.512 h -69.335"
         style="fill:#203d67;fill-opacity:1;fill-rule:nonzero;stroke:none"
         transform="matrix(0.13333333,0,0,-0.13333333,0,162.74667)" />
      <path
         id="path29"
         d="m 1364.16,1148.43 -23.47,-84.62 h 45.87 z m -122.32,-180.262 94.22,252.442 h 56.18 l 93.87,-252.442 h -73.24 l -15.3,49.422 h -67.19 l -14.94,-49.422 h -73.6"
         style="fill:#203d67;fill-opacity:1;fill-rule:nonzero;stroke:none"
         transform="matrix(0.13333333,0,0,-0.13333333,0,162.74667)" />
      <path
         id="path30"
         d="M 1600.94,1092.26 V 968.168 h -69.32 v 252.442 h 54.04 l 101.33,-128.35 v 128.35 h 69.33 V 968.168 h -55.11 l -100.27,124.092"
         style="fill:#203d67;fill-opacity:1;fill-rule:nonzero;stroke:none"
         transform="matrix(0.13333333,0,0,-0.13333333,0,162.74667)" />
      <path
         id="path31"
         d="m 1826.36,968.168 v 252.442 h 69.34 V 1117.5 l 83.9,103.11 h 71.12 l -91.74,-113.07 98.13,-139.372 h -72.53 l -66.48,100.622 -22.4,-25.6 v -75.022 h -69.34"
         style="fill:#203d67;fill-opacity:1;fill-rule:nonzero;stroke:none"
         transform="matrix(0.13333333,0,0,-0.13333333,0,162.74667)" />
      <path
         id="path32"
         d="M 2277.92,1028.61 V 968.168 H 2098 v 252.442 h 176.71 v -60.45 h -107.37 v -35.55 h 91.73 v -56.18 h -91.73 v -39.82 h 110.58"
         style="fill:#203d67;fill-opacity:1;fill-rule:nonzero;stroke:none"
         transform="matrix(0.13333333,0,0,-0.13333333,0,162.74667)" />
      <path
         id="path33"
         d="m 2490.88,1094.75 c 0,9.71 -1.3,18.6 -3.91,26.66 -2.61,8.06 -6.34,14.93 -11.19,20.62 -4.87,5.69 -10.85,10.14 -17.96,13.34 -7.11,3.19 -15.06,4.79 -23.82,4.79 h -27.74 V 1028.61 H 2434 c 9,0 17.06,1.66 24.17,4.98 7.12,3.32 13.09,7.94 17.96,13.87 4.85,5.92 8.53,12.91 11.02,20.97 2.49,8.06 3.73,16.83 3.73,26.32 z M 2336.93,968.168 V 1220.61 H 2434 c 20.85,0 39.23,-3.32 55.11,-9.96 15.88,-6.64 29.15,-15.64 39.82,-27.02 10.66,-11.38 18.72,-24.71 24.17,-40 5.46,-15.29 8.18,-31.58 8.18,-48.88 0,-19.2 -3.02,-36.57 -9.07,-52.09 -6.04,-15.53 -14.64,-28.8 -25.77,-39.82 -11.14,-11.027 -24.53,-19.559 -40.18,-25.606 -15.64,-6.043 -33.06,-9.066 -52.26,-9.066 h -97.07"
         style="fill:#203d67;fill-opacity:1;fill-rule:nonzero;stroke:none"
         transform="matrix(0.13333333,0,0,-0.13333333,0,162.74667)" />
      <path
         id="path34"
         d="m 993.984,708.773 c 0,15.407 2.719,30.579 8.176,45.508 5.45,14.938 13.45,28.324 24,40.184 10.54,11.848 23.35,21.449 38.4,28.797 15.05,7.343 32.18,11.019 51.38,11.019 22.51,0 42.19,-5.039 59.02,-15.109 16.83,-10.074 29.27,-23.41 37.33,-39.996 l -52.97,-37.692 c -2.14,6.161 -4.93,11.254 -8.36,15.289 -3.44,4.028 -7.17,7.227 -11.2,9.598 -4.03,2.367 -8.3,4.027 -12.8,4.981 -4.5,0.945 -8.65,1.421 -12.44,1.421 -8.78,0 -16.3,-1.957 -22.58,-5.871 -6.29,-3.91 -11.5,-9.007 -15.65,-15.285 -4.15,-6.285 -7.17,-13.394 -9.06,-21.336 -1.9,-7.941 -2.85,-15.816 -2.85,-23.64 0,-8.774 1.13,-17.188 3.38,-25.246 2.25,-8.059 5.57,-15.168 9.95,-21.332 4.39,-6.168 9.72,-11.083 16.01,-14.754 6.28,-3.676 13.45,-5.512 21.5,-5.512 4.03,0 8.18,0.535 12.45,1.598 4.27,1.07 8.36,2.847 12.27,5.332 3.91,2.492 7.46,5.691 10.67,9.601 3.19,3.91 5.74,8.711 7.64,14.399 l 56.53,-33.774 c -3.55,-9.242 -8.95,-17.543 -16.18,-24.887 -7.23,-7.355 -15.47,-13.515 -24.71,-18.496 -9.24,-4.972 -19.08,-8.769 -29.51,-11.379 -10.43,-2.605 -20.62,-3.906 -30.58,-3.906 -17.54,0 -33.65,3.731 -48.35,11.203 -14.7,7.461 -27.32,17.352 -37.87,29.688 -10.54,12.324 -18.79,26.308 -24.71,41.953 -5.929,15.644 -8.886,31.523 -8.886,47.644"
         style="fill:#203d67;fill-opacity:1;fill-rule:nonzero;stroke:none"
         transform="matrix(0.13333333,0,0,-0.13333333,0,162.74667)" />
      <path
         id="path35"
         d="M 1518.78,832.859 V 580.414 h -69.33 v 98.848 h -84.62 v -98.848 h -69.34 v 252.445 h 69.34 v -93.152 h 84.62 v 93.152 h 69.33"
         style="fill:#203d67;fill-opacity:1;fill-rule:nonzero;stroke:none"
         transform="matrix(0.13333333,0,0,-0.13333333,0,162.74667)" />
      <path
         id="path36"
         d="m 1673.79,706.285 c 0,-8.531 1.01,-16.773 3.03,-24.715 2.01,-7.941 5.16,-14.988 9.43,-21.148 4.26,-6.168 9.59,-11.149 15.99,-14.938 6.41,-3.796 13.87,-5.687 22.4,-5.687 8.77,0 16.36,1.957 22.76,5.867 6.39,3.91 11.61,9.004 15.64,15.289 4.03,6.277 7.05,13.449 9.06,21.508 2.02,8.055 3.03,16.234 3.03,24.535 0,8.531 -1.06,16.77 -3.2,24.715 -2.13,7.934 -5.27,14.93 -9.43,20.973 -4.15,6.046 -9.41,10.902 -15.82,14.578 -6.39,3.672 -13.86,5.511 -22.4,5.511 -8.77,0 -16.3,-1.898 -22.57,-5.687 -6.29,-3.793 -11.5,-8.832 -15.64,-15.113 -4.15,-6.285 -7.24,-13.395 -9.25,-21.332 -2.02,-7.946 -3.03,-16.063 -3.03,-24.356 z m 50.14,-128 c -18.02,0 -34.43,3.672 -49.24,11.016 -14.82,7.355 -27.5,17.012 -38.04,28.984 -10.55,11.965 -18.73,25.656 -24.54,41.067 -5.81,15.406 -8.71,31.289 -8.71,47.644 0,16.59 3.02,32.59 9.07,48 6.04,15.402 14.52,28.977 25.42,40.711 10.89,11.731 23.76,21.094 38.58,28.086 14.8,6.988 31.1,10.488 48.89,10.488 18,0 34.42,-3.676 49.23,-11.019 14.82,-7.348 27.5,-17.067 38.05,-29.157 10.55,-12.089 18.66,-25.839 24.36,-41.246 5.68,-15.41 8.53,-31.171 8.53,-47.289 0,-16.59 -3.03,-32.527 -9.07,-47.816 -6.04,-15.289 -14.39,-28.805 -25.06,-40.531 -10.67,-11.739 -23.47,-21.164 -38.41,-28.274 -14.93,-7.109 -31.29,-10.664 -49.06,-10.664"
         style="fill:#203d67;fill-opacity:1;fill-rule:nonzero;stroke:none"
         transform="matrix(0.13333333,0,0,-0.13333333,0,162.74667)" />
      <path
         id="path37"
         d="m 1930.15,580.414 v 252.445 h 69.33 V 580.414 h -69.33"
         style="fill:#203d67;fill-opacity:1;fill-rule:nonzero;stroke:none"
         transform="matrix(0.13333333,0,0,-0.13333333,0,162.74667)" />
      <path
         id="path38"
         d="m 2083.74,708.773 c 0,15.407 2.72,30.579 8.18,45.508 5.45,14.938 13.45,28.324 23.99,40.184 10.55,11.848 23.35,21.449 38.4,28.797 15.05,7.343 32.18,11.019 51.38,11.019 22.52,0 42.19,-5.039 59.02,-15.109 16.83,-10.074 29.28,-23.41 37.34,-39.996 l -52.98,-37.692 c -2.13,6.161 -4.92,11.254 -8.35,15.289 -3.45,4.028 -7.18,7.227 -11.2,9.598 -4.04,2.367 -8.3,4.027 -12.81,4.981 -4.5,0.945 -8.65,1.421 -12.44,1.421 -8.78,0 -16.3,-1.957 -22.58,-5.871 -6.28,-3.91 -11.5,-9.007 -15.64,-15.285 -4.15,-6.285 -7.18,-13.394 -9.07,-21.336 -1.9,-7.941 -2.84,-15.816 -2.84,-23.64 0,-8.774 1.12,-17.188 3.37,-25.246 2.25,-8.059 5.57,-15.168 9.96,-21.332 4.38,-6.168 9.71,-11.083 16,-14.754 6.28,-3.676 13.45,-5.512 21.51,-5.512 4.03,0 8.18,0.535 12.45,1.598 4.26,1.07 8.35,2.847 12.26,5.332 3.91,2.492 7.46,5.691 10.67,9.601 3.2,3.91 5.74,8.711 7.64,14.399 l 56.54,-33.774 c -3.56,-9.242 -8.96,-17.543 -16.19,-24.887 -7.22,-7.355 -15.46,-13.515 -24.7,-18.496 -9.25,-4.972 -19.08,-8.769 -29.51,-11.379 -10.43,-2.605 -20.63,-3.906 -30.58,-3.906 -17.55,0 -33.66,3.731 -48.36,11.203 -14.7,7.461 -27.31,17.352 -37.86,29.688 -10.55,12.324 -18.79,26.308 -24.72,41.953 -5.93,15.644 -8.88,31.523 -8.88,47.644"
         style="fill:#203d67;fill-opacity:1;fill-rule:nonzero;stroke:none"
         transform="matrix(0.13333333,0,0,-0.13333333,0,162.74667)" />
      <path
         id="path39"
         d="m 2565.15,640.863 v -60.449 h -179.9 v 252.445 h 176.71 v -60.441 h -107.38 v -35.559 h 91.73 v -56.175 h -91.73 v -39.821 h 110.57"
         style="fill:#203d67;fill-opacity:1;fill-rule:nonzero;stroke:none"
         transform="matrix(0.13333333,0,0,-0.13333333,0,162.74667)" />
      <path
         id="path40"
         d="m 1064.76,450.563 49.41,-165.333 48.72,165.333 h 72.89 l -92.8,-252.442 h -57.6 l -93.864,252.442 h 73.244"
         style="fill:#86d6d3;fill-opacity:1;fill-rule:nonzero;stroke:none"
         transform="matrix(0.13333333,0,0,-0.13333333,0,162.74667)" />
      <path
         id="path41"
         d="m 1350.62,323.98 c 0,-8.527 1.01,-16.769 3.02,-24.707 2.01,-7.949 5.15,-14.992 9.42,-21.152 4.27,-6.172 9.6,-11.152 16.01,-14.941 6.39,-3.789 13.86,-5.684 22.39,-5.684 8.77,0 16.36,1.953 22.76,5.867 6.4,3.907 11.61,9.004 15.64,15.285 4.03,6.278 7.05,13.457 9.07,21.512 2.01,8.059 3.02,16.231 3.02,24.531 0,8.536 -1.07,16.77 -3.2,24.719 -2.13,7.93 -5.28,14.93 -9.42,20.977 -4.15,6.043 -9.42,10.898 -15.82,14.57 -6.41,3.672 -13.87,5.516 -22.4,5.516 -8.77,0 -16.3,-1.903 -22.58,-5.692 -6.28,-3.789 -11.5,-8.828 -15.64,-15.109 -4.15,-6.289 -7.24,-13.399 -9.25,-21.336 -2.01,-7.941 -3.02,-16.055 -3.02,-24.356 z m 50.14,-128 c -18.02,0 -34.44,3.668 -49.25,11.032 -14.82,7.34 -27.5,16.996 -38.05,28.968 -10.54,11.973 -18.72,25.657 -24.53,41.067 -5.81,15.41 -8.71,31.289 -8.71,47.644 0,16.594 3.02,32.59 9.07,48 6.04,15.411 14.51,28.985 25.42,40.711 10.9,11.731 23.76,21.094 38.58,28.086 14.81,6.992 31.11,10.489 48.88,10.489 18.02,0 34.44,-3.672 49.25,-11.016 14.81,-7.352 27.49,-17.07 38.04,-29.16 10.54,-12.09 18.67,-25.84 24.35,-41.238 5.7,-15.411 8.54,-31.172 8.54,-47.297 0,-16.59 -3.02,-32.528 -9.06,-47.813 -6.05,-15.293 -14.41,-28.808 -25.07,-40.535 -10.67,-11.73 -23.47,-21.156 -38.4,-28.27 -14.93,-7.109 -31.29,-10.668 -49.06,-10.668"
         style="fill:#86d6d3;fill-opacity:1;fill-rule:nonzero;stroke:none"
         transform="matrix(0.13333333,0,0,-0.13333333,0,162.74667)" />
      <path
         id="path42"
         d="m 1792.21,390.113 h -72.53 V 198.121 h -69.33 v 191.992 h -72.89 v 60.45 h 214.75 v -60.45"
         style="fill:#86d6d3;fill-opacity:1;fill-rule:nonzero;stroke:none"
         transform="matrix(0.13333333,0,0,-0.13333333,0,162.74667)" />
      <path
         id="path43"
         d="m 1866.17,198.121 v 252.442 h 69.32 V 198.121 h -69.32"
         style="fill:#86d6d3;fill-opacity:1;fill-rule:nonzero;stroke:none"
         transform="matrix(0.13333333,0,0,-0.13333333,0,162.74667)" />
      <path
         id="path44"
         d="M 2096.91,322.203 V 198.121 h -69.33 v 252.442 h 54.05 l 101.32,-128.36 v 128.36 h 69.34 V 198.121 h -55.12 l -100.26,124.082"
         style="fill:#86d6d3;fill-opacity:1;fill-rule:nonzero;stroke:none"
         transform="matrix(0.13333333,0,0,-0.13333333,0,162.74667)" />
      <path
         id="path45"
         d="m 2501.53,218.73 c -15.89,-14.929 -34.26,-22.39 -55.12,-22.39 -15.64,0 -30.46,3.5 -44.44,10.488 -13.99,6.981 -26.25,16.41 -36.8,28.266 -10.55,11.855 -18.91,25.652 -25.07,41.426 -6.16,15.761 -9.24,32.41 -9.24,49.949 0,17.785 3.14,34.316 9.42,49.601 6.28,15.293 14.94,28.563 25.96,39.825 11.02,11.25 24,20.144 38.93,26.66 14.93,6.523 30.94,9.785 48,9.785 10.66,0 20.86,-1.25 30.58,-3.742 9.71,-2.481 18.72,-6.16 27.02,-11.016 8.3,-4.863 15.7,-10.664 22.22,-17.422 6.52,-6.758 11.91,-14.402 16.18,-22.937 l -51.56,-39.465 c -4.27,9.961 -10.72,17.961 -19.37,24.004 -8.66,6.047 -17.84,9.062 -27.56,9.062 -7.11,0 -13.68,-1.66 -19.73,-4.98 -6.04,-3.321 -11.27,-7.938 -15.64,-13.867 -4.4,-5.926 -7.82,-12.969 -10.31,-21.153 -2.5,-8.172 -3.75,-17.129 -3.75,-26.844 0,-9.953 1.25,-18.964 3.75,-27.023 2.49,-8.055 5.97,-14.988 10.48,-20.801 4.51,-5.808 9.9,-10.301 16.18,-13.504 6.27,-3.203 13.21,-4.804 20.8,-4.804 8.53,0 16.76,2.136 24.71,6.406 7.94,4.266 15.34,10.418 22.22,18.484 h -44.44 v 49.778 h 103.81 V 198.121 h -57.23 v 20.609"
         style="fill:#86d6d3;fill-opacity:1;fill-rule:nonzero;stroke:none"
         transform="matrix(0.13333333,0,0,-0.13333333,0,162.74667)" />
    </g>
  </g>
</svg>
